<?xml version="1.0" encoding="iso-8859-1"?>
<!-- Generator: Adobe Illustrator 16.0.0, SVG Export Plug-In . SVG Version: 6.00 Build 0)  -->
<!DOCTYPE svg PUBLIC "-//W3C//DTD SVG 1.1//EN" "http://www.w3.org/Graphics/SVG/1.1/DTD/svg11.dtd">
<svg version="1.1" id="Capa_1" xmlns="http://www.w3.org/2000/svg" xmlns:xlink="http://www.w3.org/1999/xlink" x="0px" y="0px"
	 width="216.016px" height="216.016px" viewBox="0 0 216.016 216.016" style="enable-background:new 0 0 216.016 216.016;"
	 xml:space="preserve">
<g>
	<g>
		<path d="M206.539,70.698c0.76-4.611-2.057-7.035,0.58-11.096c0,0-9.587,0.146-9.407,9.703c-3.797-4.131-8.828-3.957-8.828-3.957
			c3.961,6.831,2.015,9.218,2.036,11.825c0.073,6.199,3.87,7.029,6.981,7.473c-0.332,0.34-0.559,0.772-0.611,1.271
			c-2.089,20.008-20.05,34.589-40.058,32.532c-8.427-0.875-15.609-5.348-20.25-11.707c2.88,1.856,6.139,3.101,9.672,3.48
			c0.96,0.105,1.909,0.137,2.869,0.137c6.054,0,11.875-1.993,16.632-5.748c4.166-3.282,7.135-7.625,8.664-12.519
			c3.186-0.786,8.665-3.417,3.296-11.884c-1.038-1.648-3.48-5.137-3.648-9.605c0,0-13.854,15.2-3.987,20.725
			c-1.303,3.85-3.681,7.296-7.003,9.903c-4.625,3.649-10.452,5.318-16.39,4.704c-4.636-0.478-8.828-2.689-11.771-6.218
			c-2.589-3.082-3.871-6.884-3.839-10.815c0.021-0.659,0.042-1.324,0.11-1.994c0-0.016,0-0.032,0-0.042
			c0.986-6.924,7.457-11.852,14.702-11.161c2.812,0.304,5.348,1.664,7.104,3.818c1.683,2.067,2.447,4.622,2.184,7.24
			c-0.211,1.973-1.176,3.752-2.742,5.033c-1.646,1.34-3.713,1.912-5.875,1.717c-1.202-0.155-2.246,0.751-2.362,1.917
			c-0.121,1.184,0.743,2.246,1.92,2.365c3.301,0.355,6.507-0.594,9.049-2.65c2.457-2.004,3.986-4.833,4.303-7.944
			c0.391-3.741-0.717-7.446-3.121-10.412c-2.489-3.066-6.055-4.989-10.015-5.387c-9.793-1.05-18.547,5.922-19.538,15.47
			c-0.058,0.54,0.011,1.055-0.005,1.582c-0.185,4.45,0.511,8.732,1.972,12.711h-13.511l2.489-3.684
			c0.354-0.543,0.391-1.197,0.211-1.803c5.906-3.541,9.903-9.951,9.903-17.323c0-11.167-9.086-20.266-20.255-20.266
			c-11.167,0-20.261,9.099-20.261,20.266c0,7.562,4.216,14.09,10.378,17.584c-0.087,0.551-0.042,1.078,0.269,1.542l2.497,3.684
			H86.833c1.458-3.958,2.16-8.25,1.969-12.711c-0.01-0.527,0.05-1.042-0.005-1.582c-1-9.559-9.78-16.524-19.536-15.47
			c-3.971,0.398-7.528,2.32-10.017,5.387c-2.404,2.966-3.517,6.655-3.127,10.407c0.324,3.116,1.851,5.945,4.309,7.949
			c2.539,2.057,5.735,3.022,9.044,2.65c1.189-0.113,2.049-1.182,1.925-2.365c-0.127-1.182-1.184-2.088-2.373-1.917
			c-2.154,0.195-4.227-0.377-5.869-1.717c-1.566-1.263-2.531-3.045-2.737-5.038c-0.269-2.587,0.501-5.168,2.181-7.235
			c1.761-2.154,4.282-3.515,7.106-3.818c7.206-0.706,13.711,4.232,14.7,11.161c0,0.011-0.005,0.032,0,0.042
			c0.071,0.669,0.082,1.334,0.108,1.994c0.031,3.931-1.248,7.733-3.834,10.815c-2.948,3.528-7.132,5.735-11.784,6.218
			c-5.933,0.63-11.754-1.039-16.382-4.704c-3.322-2.607-5.698-6.054-7.011-9.903c9.877-5.514-3.979-20.725-3.979-20.725
			c-0.174,4.469-2.608,7.973-3.649,9.605c-5.368,8.466,0.105,11.098,3.299,11.884c1.521,4.894,4.498,9.236,8.661,12.519
			c4.762,3.755,10.579,5.748,16.633,5.748c0.949,0,1.912-0.053,2.871-0.137c3.528-0.364,6.79-1.624,9.672-3.48
			c-4.638,6.359-11.82,10.832-20.25,11.707c-20.029,2.057-37.977-12.524-40.052-32.532c-0.053-0.509-0.295-0.931-0.625-1.271
			c3.114-0.443,6.916-1.258,6.982-7.473c0.026-2.607-1.917-4.999,2.036-11.825c0,0-5.034-0.15-8.82,3.957
			c0.174-9.558-9.411-9.703-9.411-9.703c2.634,4.061-0.179,6.484,0.583,11.096C4.575,68.225,0,69.991,0,69.991
			c6.004,5.126,4.968,8.024,5.859,10.466c2.067,5.637,5.74,5.357,8.77,4.785c-0.164,0.335-0.264,0.717-0.227,1.118
			c2.175,20.956,19.931,36.603,40.558,36.603c1.4,0,2.813-0.09,4.234-0.221c4.833-0.512,9.294-2.047,13.236-4.361
			c-1.957,2.193-3.175,5.067-3.183,8.211c0,8.279,6.739,15.019,15.019,15.019c10.049,0,18.226-8.185,18.226-18.235
			c0-7.763-2.624-14.038-7.085-17.922h8.397l0.862,1.278c0.319,0.475,0.746,0.78,1.163,1.097v29.88
			c-0.417,0.295-0.844,0.569-1.158,1.033l-6.291,9.303c-0.448,0.664-0.496,1.519-0.119,2.226c0.38,0.706,1.112,1.149,1.912,1.149
			h2.194c-0.032,0.253-0.146,0.475-0.146,0.728c0,3.195,2.587,5.779,5.777,5.779s5.779-2.594,5.779-5.779
			c0-0.253-0.115-0.475-0.147-0.728h2.731c0.043,0,0.074,0,0.116,0c1.192,0,2.151-0.981,2.151-2.162
			c0-0.675-0.311-1.276-0.791-1.677l-5.975-8.839c-0.464-0.675-1.047-1.16-1.685-1.466v-28.993c0.648-0.349,1.231-0.854,1.695-1.54
			l0.865-1.279h7.867c-4.466,3.884-7.082,10.16-7.082,17.921c0,10.052,8.174,18.236,18.226,18.236c4.008,0,7.778-1.572,10.62-4.394
			c2.837-2.821,4.393-6.618,4.393-10.626c0-3.164-1.223-6.017-3.174-8.211c3.938,2.305,8.4,3.85,13.226,4.352
			c1.424,0.142,2.832,0.221,4.239,0.221c20.614,0,38.375-15.646,40.553-36.603c0.048-0.401-0.068-0.778-0.221-1.118
			c3.032,0.578,6.697,0.857,8.764-4.78c0.896-2.447-0.142-5.345,5.864-10.471C215.989,69.991,211.412,68.225,206.539,70.698z
			 M98.173,123.406c0,7.668-6.238,13.911-13.906,13.911c-5.896,0-10.697-4.799-10.697-10.689c0-4.472,3.644-8.126,8.126-8.126
			c1.88,0,3.493,0.923,4.606,2.257c-1.88,0.391-3.314,1.973-3.314,3.977c0,2.278,1.851,4.149,4.14,4.149
			c1.632,0,3.008-0.975,3.684-2.346c0.751-0.333,1.273-1.087,1.273-1.962c0-5.732-4.659-10.399-10.389-10.399
			c-1.604,0-3.122,0.338-4.53,0.886c3.104-2.637,5.703-5.832,7.652-9.41C94.582,106.534,98.173,115.549,98.173,123.406z
			 M110.148,93.282V63.437c2.479,2.176,4.654,7.823,4.654,14.929C114.803,85.475,112.622,91.101,110.148,93.282z M105.83,63.437
			v29.845c-2.479-2.181-4.656-7.833-4.656-14.932C101.168,71.255,103.352,65.612,105.83,63.437z M123.926,78.35
			c0,5.709-3.037,10.687-7.562,13.5c1.709-3.535,2.764-8.189,2.764-13.5c0-5.302-1.039-9.961-2.764-13.494
			C120.889,67.677,123.926,72.654,123.926,78.35z M92.042,78.35c0-5.711,3.041-10.687,7.56-13.494
			c-1.706,3.533-2.752,8.192-2.752,13.494c0,5.311,1.041,9.965,2.752,13.5C95.083,89.042,92.042,84.059,92.042,78.35z
			 M123.895,124.577c0,0.759,0.422,1.402,1.012,1.782c0.633,1.471,2.1,2.521,3.808,2.521c2.289,0,4.146-1.866,4.146-4.145
			c0-1.951-1.382-3.513-3.196-3.955c1.118-1.351,2.742-2.278,4.62-2.278c4.482,0,8.121,3.649,8.121,8.121
			c0,2.858-1.107,5.537-3.133,7.562c-2.015,2.009-4.704,3.127-7.562,3.127c-7.667,0-13.911-6.238-13.911-13.906
			c0-7.857,3.597-16.878,13.357-17.758c1.957,3.573,4.557,6.768,7.657,9.416c-1.418-0.564-2.932-0.886-4.524-0.886
			C128.556,114.178,123.895,118.84,123.895,124.577z"/>
	</g>
</g>
<g>
</g>
<g>
</g>
<g>
</g>
<g>
</g>
<g>
</g>
<g>
</g>
<g>
</g>
<g>
</g>
<g>
</g>
<g>
</g>
<g>
</g>
<g>
</g>
<g>
</g>
<g>
</g>
<g>
</g>
</svg>
